<svg width="255" height="58" viewBox="0 0 255 58" fill="none" xmlns="http://www.w3.org/2000/svg">
<path d="M29.8918 43.0317L234.999 38.9802C239.431 38.6812 241.983 38.2029 244.814 35.5091C246.356 34.0429 247.639 31.3871 248.749 28.9987L255 3.74162L45.708 13.6883C45.475 13.7046 45.2432 13.7235 45.0124 13.7469C36.9974 14.5488 30.9492 20.1699 30.6675 26.7325L29.8918 43.0317Z" fill="#FAB50B"/>
<path d="M78.6254 30.8366C80.4565 30.7828 81.4822 31.7153 81.108 33.3969C80.7334 35.0786 79.2765 36.0841 77.4451 36.1379L66.8937 36.4471C64.1317 36.5284 63.0884 35.3984 63.6976 32.6616L66.6927 19.2086C67.1812 17.0138 68.8449 15.6344 71.0483 15.5697C73.2521 15.5047 74.3191 16.8044 73.8305 18.9992L71.1463 31.0558L78.6254 30.8366Z" fill="#E42D29"/>
<path d="M95.1002 19.8477C92.1208 19.9351 90.1859 22.257 89.4435 25.5918C88.7012 28.9265 89.6209 31.1652 92.6 31.0778C95.5794 30.9901 97.5146 28.6682 98.2573 25.3331C98.9996 21.9987 98.0796 19.7604 95.1002 19.8477ZM96.2424 14.7174C102.17 14.5436 106.994 17.9414 105.395 25.1238C103.739 32.5632 97.4477 36.0324 91.4581 36.2082C85.4682 36.3836 80.6493 33.2403 82.3057 25.8011C83.9047 18.6188 90.3152 14.8912 96.2424 14.7174Z" fill="#E42D29"/>
<path d="M128.716 16.4832C129.501 14.4779 131.038 13.8098 132.682 13.7618C134.575 13.7061 135.644 14.8637 135.275 16.5171C135.079 17.4007 134.451 18.6937 133.656 20.3308L127.919 32.1089C127.01 33.9762 125.621 35.0928 123.542 35.1539L122.455 35.1856C120.376 35.2468 119.611 34.2499 119.652 32.2664L119.817 22.8038L119.754 22.8057L115.68 32.3829C114.832 34.3898 113.61 35.4449 111.531 35.5061L110.445 35.5378C108.366 35.5986 107.459 34.5499 107.374 32.7114L106.841 21.1173C106.769 19.5055 106.713 18.2327 106.91 17.3494C107.278 15.696 108.879 14.46 110.772 14.4043C112.416 14.3559 113.674 14.9421 113.571 16.9272L113.038 28.043L113.101 28.041L117.423 17.352C118.327 15.089 119.275 14.1549 121.727 14.0829C124.179 14.0112 124.721 14.9014 124.623 17.141L124.211 27.7152L124.273 27.7136L128.716 16.4832Z" fill="#E42D29"/>
<path d="M153.671 22.6605C154.85 22.6259 156.243 21.9056 156.554 20.5086C156.859 19.1404 156.012 18.3727 154.275 18.4236L150.675 18.5293L149.729 22.7761L153.671 22.6605ZM143.958 17.6784C144.567 14.9422 146.13 13.7357 148.892 13.6544L155.347 13.4652C160.81 13.3048 164.749 14.7185 163.512 20.2762C162.281 25.8057 157.656 27.4704 152.194 27.6308L148.624 27.7358L147.888 31.0417C147.4 33.2365 145.886 34.4985 143.651 34.5641C141.417 34.6294 140.448 33.4401 140.937 31.2457L143.958 17.6784Z" fill="#E42D29"/>
<path d="M174.769 21.7865C176.848 21.7256 177.819 21.1024 178.13 19.7056C178.441 18.3093 177.737 17.7353 175.657 17.7961L172.088 17.9008L171.2 21.8912L174.769 21.7865ZM165.372 17.0502C165.981 14.3141 167.544 13.1072 170.616 13.0169L178.53 12.7848C183.992 12.6248 185.847 15.2322 185.15 18.3675C184.553 21.0463 182.397 22.8371 179.527 23.4028L179.514 23.4598C181.748 23.536 183.141 24.2028 182.969 26.3601L182.837 28.0626C182.777 29.0271 182.697 30.0771 182.506 30.9322C182.158 32.4998 180.272 33.49 178.751 33.5345C176.671 33.5956 175.236 32.8443 175.438 30.8281L175.699 28.1304C175.851 26.4837 174.717 26.0355 173.041 26.0848L170.248 26.1668L169.303 30.4136C168.814 32.608 167.3 33.8703 165.065 33.9359C162.831 34.0012 161.862 32.812 162.351 30.6175L165.372 17.0502Z" fill="#E42D29"/>
<path d="M187.664 15.6602C188.152 13.4654 189.816 12.0856 192.019 12.0213C194.223 11.9566 195.29 13.256 194.802 15.4511L191.642 29.6452C191.153 31.84 189.489 33.2194 187.285 33.2841C185.083 33.3484 184.015 32.049 184.504 29.8543L187.664 15.6602Z" fill="#E42D29"/>
<path d="M208.648 11.4202C213.923 11.2656 217.268 13.9704 216.608 16.9347C216.246 18.5597 214.614 19.7967 212.597 19.8559C211.262 19.8949 210.885 19.6513 210.247 18.2258C209.627 16.8563 208.685 16.516 207.133 16.5618C204.899 16.6274 202.655 18.6749 201.849 22.2949C201.106 25.6297 202.026 27.868 205.006 27.7806C206.309 27.7425 207.037 27.3811 208.87 25.5151C209.75 24.6117 210.727 24.1014 211.782 24.0704C213.644 24.0159 214.843 25.1418 214.462 26.8523C213.662 30.4434 207.836 32.7945 203.863 32.911C197.874 33.0871 193.055 29.9434 194.711 22.5043C196.31 15.3216 202.72 11.5941 208.648 11.4202Z" fill="#E42D29"/>
<path d="M217.974 15.5069C218.583 12.7708 220.147 11.5643 222.909 11.4829L234.267 11.15C236.409 11.0873 237.155 12.0278 236.838 13.4527C236.521 14.8782 235.343 15.8754 233.201 15.9385L224.915 16.1814L224.274 19.06L230.916 18.8651C233.057 18.8023 233.803 19.7432 233.486 21.1684C233.169 22.5936 231.991 23.5908 229.85 23.6535L223.208 23.8488L222.478 27.1263L231.106 26.873C233.247 26.8103 233.994 27.7511 233.676 29.1763C233.359 30.6016 232.181 31.5987 230.04 31.6615L218.34 32.005C215.578 32.086 214.535 30.9556 215.144 28.2192L217.974 15.5069Z" fill="#E42D29"/>
<path d="M54.3639 23.5269C56.7248 37.2667 45.5258 50.64 29.1997 51.8837C12.8745 53.1454 -0.233733 41.6381 0.00316101 27.6985C0.232372 13.723 11.6033 2.55828 25.3313 1.47785C39.0634 0.450886 52.0049 9.74993 54.3639 23.5269Z" fill="#E42D29"/>
<path d="M40.2065 25.6875L12.7434 27.7949C11.825 27.8656 10.9712 27.3189 10.6504 26.4552L4.74505 10.5509C4.45053 9.75766 4.99763 8.90293 5.84117 8.83826L41.0465 6.13639" fill="white"/>
<path d="M21.3657 39.9449C21.5869 42.8273 19.4295 45.3435 16.5468 45.5647C13.6644 45.7859 11.1485 43.6283 10.927 40.7459C10.7058 37.8634 12.8631 35.3476 15.7458 35.126C18.6283 34.9048 21.1445 37.0625 21.3657 39.9449Z" fill="white"/>
<path d="M40.3365 38.489C40.5578 41.3715 38.4004 43.8877 35.5177 44.1089C32.6353 44.3304 30.1191 42.1724 29.8982 39.29C29.677 36.4076 31.834 33.8917 34.7167 33.6705C37.5991 33.449 40.1153 35.6066 40.3365 38.489Z" fill="white"/>
<path d="M35.8716 38.8315C35.9036 39.2483 35.5918 39.612 35.175 39.644C34.7585 39.676 34.3949 39.3642 34.3629 38.9474C34.3308 38.5309 34.6426 38.1669 35.0591 38.1349C35.4759 38.1032 35.8396 38.415 35.8716 38.8315Z" fill="white"/>
<path d="M18.3658 37.1186C16.0779 37.2944 14.3591 39.2987 14.5349 41.5866C14.7103 43.8746 16.7146 45.5933 19.0025 45.4179C21.2908 45.2418 23.0092 43.2378 22.8338 40.9499C22.6581 38.6616 20.6538 36.9432 18.3658 37.1186ZM19.1668 47.557C15.6992 47.823 12.6615 45.2188 12.3954 41.7508C12.1291 38.2832 14.734 35.2452 18.2016 34.9792C21.6692 34.7132 24.7072 37.3177 24.9732 40.7857C25.2393 44.2533 22.6347 47.291 19.1668 47.557Z" fill="#3350A4"/>
<path d="M37.9085 35.6188L17.4623 37.1877C16.8717 37.2332 16.356 36.7911 16.3108 36.2001C16.2654 35.6095 16.7075 35.0938 17.2984 35.0483L37.7443 33.4794C39.5274 33.3423 41.0275 32.0878 41.4776 30.3572L48.0223 5.19455C48.7029 2.57784 50.9716 0.680126 53.668 0.473324L59.7978 0.00305939C60.3888 -0.0424004 60.9045 0.399696 60.95 0.99065C60.9951 1.58128 60.553 2.09701 59.9624 2.14247L53.8319 2.61273C52.0491 2.74975 50.549 4.00432 50.0989 5.73461L43.5543 30.8975C42.8737 33.5146 40.6046 35.412 37.9085 35.6188Z" fill="#3350A4"/>
<path d="M18.6541 40.8703C18.4348 40.8872 18.2699 41.0793 18.2869 41.2986C18.3035 41.5182 18.4956 41.6831 18.7152 41.6661C18.9345 41.6491 19.0993 41.457 19.0824 41.2378C19.0657 41.0182 18.8733 40.8536 18.6541 40.8703ZM18.7699 42.379C18.1572 42.4261 17.6207 41.966 17.5736 41.3533C17.5266 40.7409 17.9869 40.2041 18.5993 40.157C19.212 40.1103 19.7486 40.5703 19.7956 41.183C19.8424 41.7954 19.3823 42.3323 18.7699 42.379Z" fill="#3350A4"/>
<path d="M37.3368 35.6628C35.0488 35.8386 33.33 37.8429 33.5058 40.1308C33.6812 42.4188 35.6855 44.1375 37.9738 43.9621C40.2618 43.7863 41.9802 41.782 41.8048 39.4941C41.6293 37.2058 39.6247 35.4874 37.3368 35.6628ZM38.1377 46.1012C34.6701 46.3672 31.6324 43.763 31.3664 40.295C31.1 36.8274 33.7049 33.7894 37.1725 33.5234C40.6405 33.2574 43.6781 35.8619 43.9442 39.3299C44.2105 42.7975 41.6056 45.8352 38.1377 46.1012Z" fill="#3350A4"/>
<path d="M37.625 39.4147C37.4057 39.4313 37.2408 39.6237 37.2578 39.843C37.2745 40.0623 37.4665 40.2272 37.6861 40.2102C37.9054 40.1936 38.0703 40.0015 38.0533 39.7819C38.0367 39.5626 37.8446 39.3977 37.625 39.4147ZM37.7409 40.9234C37.1282 40.9705 36.5916 40.5102 36.5446 39.8978C36.4975 39.285 36.9579 38.7485 37.5703 38.7014C38.183 38.6544 38.7195 39.1147 38.7666 39.7271C38.8136 40.3399 38.3533 40.8764 37.7409 40.9234Z" fill="#3350A4"/>
<path d="M43.4143 28.559L15.9512 30.6664C14.5632 30.7733 13.2551 29.9358 12.7705 28.6307L6.86507 12.7261C6.60641 12.0295 6.68772 11.2708 7.0882 10.645C7.489 10.0188 8.14366 9.62732 8.88475 9.57033L44.0901 6.86879C44.681 6.82333 45.1964 7.26542 45.2419 7.85638C45.2873 8.44701 44.8452 8.96273 44.2543 9.00819L9.04898 11.7097C8.96671 11.7161 8.92029 11.7632 8.89532 11.8016C8.87099 11.8397 8.84762 11.9018 8.87643 11.9793L14.7821 27.8838C14.9351 28.2962 15.3484 28.5609 15.7873 28.527L43.25 26.4196C43.8407 26.3741 44.3564 26.8165 44.4019 27.4072C44.4473 27.9981 44.0049 28.5135 43.4143 28.559Z" fill="#3350A4"/>
<path d="M47.3033 13.1452L14.555 15.6582C14.1613 15.6887 13.8174 15.3938 13.787 14.9997C13.7569 14.606 14.0518 14.2622 14.4455 14.2321L47.1939 11.7188C47.5876 11.6887 47.9314 11.9835 47.9618 12.3773C47.9919 12.771 47.6971 13.1148 47.3033 13.1452Z" fill="#3350A4"/>
<path d="M45.4457 20.2878L17.8831 22.4029C17.4894 22.4333 17.1456 22.1384 17.1152 21.7444C17.0851 21.3506 17.3799 21.0068 17.774 20.9767L45.3363 18.8613C45.73 18.8312 46.0738 19.1261 46.1042 19.5198C46.1343 19.9139 45.8395 20.2574 45.4457 20.2878Z" fill="#3350A4"/>
<path d="M5.45686 51.527C5.15946 51.5494 4.8675 51.3836 4.74425 51.0936C4.58931 50.7306 4.75834 50.3099 5.122 50.1556C5.32432 50.0689 10.179 48.0242 18.5007 46.5331C26.1636 45.16 38.3134 44.0383 52.6752 46.4902C53.0645 46.5564 53.3264 46.9259 53.2601 47.3154C53.1935 47.705 52.8228 47.9663 52.4348 47.9C25.3505 43.2771 5.87622 51.3887 5.68254 51.471C5.60892 51.503 5.53273 51.5206 5.45686 51.527Z" fill="white"/>
<path d="M5.43415 52.3934C5.13675 52.4162 4.8448 52.2507 4.72155 51.9603C4.56661 51.5976 4.73563 51.177 5.0993 51.0227C5.30162 50.9356 10.1563 48.8912 18.478 47.3998C26.1409 46.0271 38.2907 44.905 52.6525 47.3569C53.0418 47.4235 53.3037 47.7929 53.2371 48.1822C53.1708 48.5718 52.8001 48.8333 52.4118 48.767C25.3278 44.1438 5.85352 52.2555 5.65984 52.3381C5.58621 52.3701 5.51002 52.3877 5.43415 52.3934Z" fill="#3350A4"/>
<path d="M249.566 46.0176C249.566 52.093 243.981 57.0354 237.115 57.0354H208.266C201.4 57.0354 195.816 52.093 195.816 46.0176C195.816 39.9419 201.4 34.9992 208.266 34.9992H237.115C243.981 34.9992 249.566 39.9419 249.566 46.0176Z" fill="white"/>
<path d="M248.831 46.0176C248.831 51.7297 243.399 56.377 236.721 56.377H208.66C201.982 56.377 196.551 51.7297 196.551 46.0176C196.551 40.3047 201.982 35.6577 208.66 35.6577H236.721C243.399 35.6577 248.831 40.3047 248.831 46.0176Z" fill="#3554AC"/>
<path d="M211.427 52.5821L212.278 52.5696C213.431 52.5447 214.524 52.3587 215.527 52.0161C216.518 51.6784 217.389 51.1995 218.115 50.5913C219.556 49.3837 220.351 47.7364 220.351 45.9536C220.351 45.0592 220.148 44.2031 219.748 43.4105C219.357 42.6329 218.788 41.936 218.057 41.3393C217.316 40.7336 216.436 40.2531 215.443 39.9112C214.409 39.5559 213.287 39.3628 212.108 39.3378L211.454 39.3238V36.3126L212.134 36.3248C213.69 36.353 215.182 36.6049 216.566 37.0733C217.964 37.5458 219.209 38.2241 220.266 39.0894C222.461 40.8831 223.669 43.3209 223.669 45.9536C223.669 48.5892 222.496 51.0231 220.365 52.8062C219.327 53.675 218.099 54.3563 216.712 54.8307C215.34 55.3006 213.857 55.5535 212.304 55.5817L211.427 55.5923V52.5821Z" fill="white"/>
<path d="M240.066 50.8032C239.723 50.8032 239.379 50.7686 239.042 50.7001C237.885 50.4636 236.886 49.7756 236.229 48.7615C235.933 48.3053 235.715 47.7895 235.6 47.2706C235.483 46.7472 235.469 46.2148 235.559 45.7305C235.571 45.6633 235.591 45.6037 235.608 45.5509L235.613 45.5343C235.794 44.6901 236.181 43.7912 236.764 42.8606L236.767 42.8558L236.77 42.851C236.792 42.8199 237.314 42.0682 238.297 41.2596C238.874 40.7845 239.492 40.3882 240.133 40.0809C240.937 39.6958 241.78 39.4509 242.639 39.3529L243.023 39.3094L242.928 39.6852C242.916 39.7326 242.894 39.7633 242.886 39.7749C242.847 39.8309 242.499 40.3396 242.317 41.0144C242.212 41.4069 242.182 41.7814 242.229 42.1275C242.285 42.5459 242.456 42.9281 242.736 43.2639C243.343 43.8725 243.954 44.5361 244.318 45.267C244.501 45.6329 244.61 45.9901 244.653 46.3605C244.699 46.7546 244.669 47.1512 244.561 47.5747C244.441 48.0489 244.232 48.4935 243.942 48.8985C243.664 49.2881 243.316 49.6306 242.91 49.9171C242.508 50.2001 242.061 50.4207 241.58 50.5715C241.091 50.7251 240.582 50.8032 240.066 50.8032Z" fill="white"/>
<path d="M244.302 47.5087C243.768 49.6037 241.437 50.9155 239.095 50.4373C236.754 49.9596 235.483 47.6102 235.822 45.7797C235.833 45.7189 235.853 45.6613 235.872 45.603C236.03 44.8584 236.37 43.9934 236.991 43.0026C236.991 43.0026 239.035 40.0325 242.669 39.6189C242.668 39.6211 241.118 41.7615 242.541 43.447H242.541C243.889 44.7966 244.708 45.9148 244.302 47.5087Z" fill="white"/>
<path d="M238.058 46.5081C238.058 46.7004 238.098 46.8381 238.177 46.9223C238.257 47.0065 238.366 47.0481 238.503 47.0481C238.644 47.0481 238.754 47.0075 238.831 46.9252C238.908 46.8426 238.947 46.695 238.947 46.4821C238.947 46.3029 238.907 46.1719 238.826 46.0893C238.745 46.0074 238.636 45.9661 238.497 45.9661C238.365 45.9661 238.258 46.008 238.178 46.0912C238.098 46.1754 238.058 46.3147 238.058 46.5081ZM237.4 46.5055C237.4 46.1946 237.497 45.9533 237.691 45.7804C237.884 45.6072 238.154 45.5201 238.499 45.5201C238.852 45.5201 239.126 45.6059 239.317 45.7753C239.508 45.9453 239.604 46.1834 239.604 46.4898C239.604 46.7126 239.562 46.8948 239.478 47.0369C239.395 47.1797 239.274 47.2898 239.116 47.3689C238.958 47.4486 238.761 47.4883 238.525 47.4883C238.285 47.4883 238.086 47.4537 237.93 47.3855C237.772 47.317 237.645 47.2088 237.547 47.0616C237.449 46.9137 237.4 46.728 237.4 46.5055Z" fill="#3554AC"/>
<path d="M239.984 45.5531H240.643V47.4556H239.984V45.5531Z" fill="#3554AC"/>
<path d="M241.115 45.5527H241.772V46.9869H242.798V47.4556H241.115V45.5527Z" fill="#3554AC"/>
<path d="M209.932 55.629C206.889 55.5691 204.085 54.5847 202.034 52.8589C199.897 51.0605 198.721 48.6169 198.721 45.9775C198.721 43.3361 199.863 40.8961 201.937 39.1072C203.95 37.3734 206.731 36.3855 209.768 36.325L210.474 36.3112V39.3688L209.798 39.3848C207.576 39.4376 205.574 40.1377 204.161 41.3568C203.18 42.2009 202.505 43.2631 202.193 44.4466H210.228V47.5067H202.2C202.367 48.1223 202.636 48.704 203 49.2405C203.43 49.8734 203.99 50.4388 204.666 50.9225C206.105 51.9523 207.937 52.5209 209.962 52.5682L210.638 52.5843V55.6431L209.932 55.629Z" fill="white"/>
<path d="M209.937 55.3618C206.956 55.3023 204.21 54.3412 202.207 52.6542C200.131 50.9075 198.988 48.5364 198.988 45.9776C198.988 43.4153 200.098 41.047 202.112 39.3097C204.078 37.6168 206.798 36.652 209.773 36.5928L210.206 36.5841V39.108L209.791 39.1176C207.508 39.1717 205.446 39.8952 203.986 41.1542C202.87 42.1146 202.137 43.3426 201.856 44.7141H209.96V47.2392H201.86C202.187 48.7851 203.101 50.1309 204.511 51.14C205.993 52.2009 207.876 52.7873 209.956 52.8357L210.371 52.8462V55.3701L209.937 55.3618Z" fill="#ED322C"/>
<path d="M235.464 55.4529L227.635 45.8007V55.4529H224.249V36.4534H227.635V44.55L233.918 36.4815L237.674 36.4937L231.208 45.1807L239.238 55.4529H235.464Z" fill="white"/>
<path d="M224.516 36.721H227.368V55.1853H224.516V36.721ZM235.592 55.1853L227.48 45.1842L234.048 36.7492L237.143 36.7594L230.871 45.1842L238.69 55.1853H235.592Z" fill="#ED322C"/>
<path d="M212.263 52.5232L211.421 52.4336V39.4627L212.262 39.4156L212.571 39.4271L212.876 39.4675L213.177 39.536L213.468 39.633L213.748 39.7569L214.012 39.9064L214.259 40.0786L214.489 40.2748L214.694 40.4903L214.92 40.7784L214.928 51.0176L214.744 51.3253L214.556 51.5711L214.338 51.7962L214.091 51.9963L213.82 52.1679L213.531 52.3068L213.228 52.4134L212.912 52.4864L212.588 52.5232H212.263Z" fill="white"/>
<path d="M212.278 52.27L211.688 52.2076V39.7012L212.265 39.6692L212.547 39.6794L212.825 39.7162L213.1 39.779L213.366 39.8677L213.623 39.9807L213.864 40.1174L214.09 40.2749L214.299 40.4541L214.487 40.651L214.653 40.8623L214.661 50.9508L214.519 51.1883L214.348 51.4105L214.151 51.6134L213.929 51.7946L213.685 51.9489L213.423 52.0754L213.149 52.1711L212.864 52.2367L212.572 52.27H212.278Z" fill="#ED322C"/>
<path d="M211.694 52.8457L212.283 52.8377C213.464 52.8121 214.584 52.6206 215.613 52.2694C216.636 51.9208 217.535 51.4253 218.286 50.7969C219.79 49.5368 220.618 47.8171 220.618 45.954C220.618 45.017 220.406 44.1206 219.987 43.2892C219.579 42.4787 218.986 41.7533 218.226 41.1319C217.461 40.5064 216.554 40.0105 215.53 39.6584C214.47 39.2937 213.321 39.0959 212.114 39.0703L211.721 39.0617V36.5848L212.13 36.5925C213.658 36.62 215.122 36.8672 216.481 37.3266C217.848 37.7891 219.064 38.4518 220.097 39.2963C222.228 41.0384 223.402 43.4029 223.402 45.954C223.402 48.5089 222.263 50.8695 220.193 52.6011C219.181 53.4488 217.981 54.1137 216.626 54.5779C215.28 55.0392 213.824 55.2866 212.299 55.3142L211.694 55.3215V52.8457Z" fill="#ED322C"/>
</svg>
